<?xml version="1.0" standalone="no"?>
<!DOCTYPE svg PUBLIC "-//W3C//DTD SVG 20010904//EN"
 "http://www.w3.org/TR/2001/REC-SVG-20010904/DTD/svg10.dtd">
<svg version="1.0" xmlns="http://www.w3.org/2000/svg"
 width="200.000000pt" height="200.000000pt" viewBox="0 0 200.000000 200.000000"
 preserveAspectRatio="xMidYMid meet">

<g transform="translate(0.000000,200.000000) scale(0.100000,-0.100000)"
fill="currentColor" stroke="none">
<path d="M257 1773 c-4 -3 -7 -14 -7 -24 0 -15 10 -19 53 -21 45 -3 52 -6 55
-25 5 -35 52 -32 52 2 l0 25 440 0 440 0 0 25 0 25 -513 0 c-283 0 -517 -3
-520 -7z"/>
<path d="M200 1700 c0 -15 7 -20 25 -20 18 0 25 5 25 20 0 15 -7 20 -25 20
-18 0 -25 -5 -25 -20z"/>
<path d="M1290 1700 c0 -15 7 -20 25 -20 18 0 25 5 25 20 0 15 -7 20 -25 20
-18 0 -25 -5 -25 -20z"/>
<path d="M150 1545 l0 -125 25 0 25 0 0 125 0 125 -25 0 -25 0 0 -125z"/>
<path d="M410 1646 c0 -19 4 -22 25 -18 16 3 25 11 25 23 0 14 -7 19 -25 19
-20 0 -25 -5 -25 -24z"/>
<path d="M1350 1650 c0 -11 2 -20 4 -20 2 0 11 -3 20 -6 12 -5 16 0 16 20 0
19 -5 26 -20 26 -13 0 -20 -7 -20 -20z"/>
<path d="M460 1595 l0 -25 -106 0 c-104 0 -105 0 -102 -22 3 -20 10 -23 56
-26 l53 -3 -3 -77 -3 -77 -53 -3 c-48 -3 -53 -5 -50 -25 3 -21 8 -22 131 -25
l127 -3 0 -439 0 -440 25 0 25 0 -2 518 c-3 509 -3 517 -23 517 -18 0 -20 8
-23 78 -3 74 -4 77 -27 77 -20 0 -25 -5 -25 -25z m0 -100 c0 -20 5 -25 25 -25
24 0 25 -3 25 -55 l0 -55 -50 0 -50 0 0 80 c0 79 0 80 25 80 20 0 25 -5 25
-25z"/>
<path d="M670 1595 l0 -25 285 0 285 0 0 25 0 25 -285 0 -285 0 0 -25z"/>
<path d="M1400 1545 c0 -68 2 -75 20 -75 18 0 20 7 20 75 0 68 -2 75 -20 75
-18 0 -20 -7 -20 -75z"/>
<path d="M1448 1028 l-3 -443 -362 -3 -363 -2 0 -25 c0 -20 -5 -25 -25 -25
-24 0 -25 -2 -25 -75 0 -73 1 -75 25 -75 20 0 25 -5 25 -25 0 -23 3 -24 78
-27 l77 -3 3 -53 c3 -48 5 -53 25 -50 21 3 22 7 22 128 0 122 -1 125 -22 128
-21 3 -23 0 -23 -47 l0 -51 -80 0 -80 0 0 75 0 75 45 0 c25 0 48 1 53 3 4 1 8
-10 10 -25 4 -38 42 -40 42 -3 l0 25 433 0 c439 0 463 2 450 36 -4 11 -33 14
-129 14 l-124 0 -2 443 -3 442 -22 3 -23 3 -2 -443z"/>
<path d="M200 1391 c0 -11 6 -21 13 -24 20 -7 37 4 37 24 0 14 -7 19 -25 19
-18 0 -25 -5 -25 -19z"/>
<path d="M720 1390 c0 -20 7 -20 285 -20 278 0 285 0 285 20 0 20 -7 20 -285
20 -278 0 -285 0 -285 -20z"/>
<path d="M727 1203 c-4 -3 -7 -15 -7 -25 0 -17 15 -18 286 -18 l285 0 -3 23
-3 22 -276 3 c-151 1 -278 -1 -282 -5z"/>
<path d="M720 975 l0 -25 285 0 285 0 0 25 0 25 -285 0 -285 0 0 -25z"/>
<path d="M720 765 l0 -25 285 0 285 0 0 25 0 25 -285 0 -285 0 0 -25z"/>
<path d="M1760 505 c0 -20 5 -25 25 -25 l24 0 3 -127 c3 -120 4 -128 23 -128
19 0 20 8 23 128 l3 127 -26 0 c-20 0 -25 5 -25 25 0 20 -5 25 -25 25 -20 0
-25 -5 -25 -25z"/>
<path d="M570 355 c0 -68 2 -75 20 -75 18 0 20 7 20 75 0 68 -2 75 -20 75 -18
0 -20 -7 -20 -75z"/>
<path d="M622 248 c2 -15 10 -23 23 -23 30 0 27 39 -3 43 -20 3 -23 0 -20 -20z"/>
<path d="M670 195 c0 -20 5 -25 25 -25 20 0 25 -5 25 -25 l0 -25 513 0 c283 0
516 3 519 6 3 3 4 14 1 25 -5 18 -18 19 -444 19 l-439 0 0 25 c0 33 -37 35
-42 3 -3 -20 -10 -23 -55 -26 -51 -3 -53 -2 -53 22 0 21 -5 26 -25 26 -20 0
-25 -5 -25 -25z"/>
<path d="M1760 194 c0 -21 4 -25 23 -22 14 2 23 11 25 26 3 18 -1 22 -22 22
-21 0 -26 -5 -26 -26z"/>
</g>
</svg>
