<?xml version="1.0" standalone="no"?>
<!DOCTYPE svg PUBLIC "-//W3C//DTD SVG 20010904//EN"
 "http://www.w3.org/TR/2001/REC-SVG-20010904/DTD/svg10.dtd">
<svg version="1.0" xmlns="http://www.w3.org/2000/svg"
 width="200.000000pt" height="200.000000pt" viewBox="0 0 200.000000 200.000000"
 preserveAspectRatio="xMidYMid meet">

<g transform="translate(0.000000,200.000000) scale(0.100000,-0.100000)"
fill="currentColor" stroke="none">
<path d="M930 1570 l0 -70 -70 0 -70 0 0 -70 0 -69 -72 -3 -73 -3 -3 -72 -3
-73 -69 0 -70 0 0 -70 0 -70 -70 0 -70 0 0 -70 0 -70 70 0 70 0 0 -285 0 -285
500 0 500 0 0 285 0 285 70 0 70 0 0 70 0 70 -70 0 -70 0 0 70 0 70 -70 0 -69
0 -3 73 -3 72 -67 3 -67 3 -3 67 -3 67 -72 3 -73 3 0 69 0 70 -70 0 -70 0 0
-70z m140 -140 l0 -70 75 0 75 0 0 -75 0 -75 70 0 70 0 0 -70 0 -70 70 0 70 0
0 -70 0 -70 -70 0 -70 0 0 -215 0 -215 -360 0 -360 0 0 215 0 215 -70 0 -70 0
0 70 0 70 70 0 70 0 0 70 0 69 73 3 72 3 3 73 3 72 69 0 70 0 0 70 0 70 70 0
70 0 0 -70z"/>
</g>
</svg>
