<?xml version="1.0" encoding="UTF-8"?>
<svg version="1.1" viewBox="0 0 1600 1600" width="1280" height="1280" xmlns="http://www.w3.org/2000/svg">
<path transform="translate(797 38.8)" d="m0 0c0.729-4.42e-4 1.46-8.84e-4 2.21-0.00134 79.4-0.0252 158 11.4 442 141 2.45 1.8 4.93 3.54 7.42 5.28 6.82 4.79 13.3 9.89 19.8 15.1 3.06 2.48 6.15 4.9 9.26 7.32 5.56 4.32 10.9 8.77 16.1 13.5 2.42 2.17 4.92 4.19 7.46 6.21 4.75 3.85 9.23 7.93 13.7 12.1 0.737 0.695 1.47 1.39 2.23 2.11 7.76 7.35 15.3 14.9 22.9 22.4 2.3 2.31 4.61 4.61 6.92 6.92 1.5 1.5 2.99 2.99 4.48 4.49 0.676 0.674 1.35 1.35 2.05 2.04 4.43 4.45 8.61 9.07 12.7 13.8 1.05 1.2 2.09 2.4 3.14 3.61 10.4 12 20.8 24.1 30.5 36.7 1.29 1.67 2.59 3.34 3.89 5 12.9 16.6 25 34 36.2 51.8 1.32 2.07 2.65 4.14 3.99 6.2 10.9 16.9 20.7 34.4 29.9 52.3 1.45 2.79 2.92 5.55 4.44 8.3 13 23.7 23.1 49 32.9 74.1l1.02 2.6c27.5 70.5 42 146 47 221 0.0481 0.708 0.0961 1.42 0.146 2.15 0.963 14.6 1.1 29.1 1.1 43.7 0.00101 1.86 0.00101 1.86 0.00204 3.77-0.0716 83.8-14.1 167-79.7 337-1.43 2.91-2.85 5.82-4.27 8.74-5.92 12.1-12.4 23.9-19.3 35.5-0.541 0.917-1.08 1.83-1.64 2.78-11.2 18.9-23.2 37.3-36.1 55.1-1.57 2.17-3.12 4.34-4.65 6.53-4.99 7.14-10.3 14-15.8 20.7-3.45 4.19-6.8 8.45-10.1 12.8-3.64 4.77-7.47 9.25-11.5 13.7-2.34 2.6-4.53 5.29-6.71 8.03-3.48 4.31-7.16 8.25-11.2 12.1-1.83 1.85-3.49 3.71-5.18 5.69-5.38 6.2-11.3 11.9-17.1 17.7-2.03 2.02-4.05 4.05-6.07 6.07-11.5 11.5-11.5 11.5-17.4 16.5-2.76 2.35-5.38 4.86-8.02 7.34-4.53 4.21-9.15 8.19-14 12-3.64 2.89-7.17 5.91-10.7 8.94-65.9 56.3-146 99-539 169-5.14-0.412-10.3-0.867-15.4-1.34-0.774-0.0703-1.55-0.141-2.34-0.213-78.2-7.16-158-27-229-59.8-3.28-1.5-6.58-2.94-9.9-4.34-11.7-4.96-23-10.3-34.1-16.4-2.41-1.29-4.83-2.54-7.27-3.78-27.1-13.8-53.3-29.9-78.1-47.5-1.4-0.975-2.8-1.95-4.2-2.92-9.18-6.4-18.1-13.1-26.8-20.1-1.5-1.17-3-2.34-4.5-3.5l-2.11-1.64c-1.86-1.44-3.72-2.88-5.59-4.3-6.69-5.15-13-10.5-19.2-16.3-3.14-2.95-6.33-5.7-9.74-8.34-4.73-3.69-8.88-7.82-13-12.1-2.07-2.05-4.12-3.93-6.32-5.81-5.69-4.93-11-10.3-16.3-15.6-1.8-1.81-3.61-3.61-5.42-5.42-5.3-5.3-10.5-10.6-15.4-16.3-2.19-2.57-4.5-5.01-6.8-7.48-4.27-4.62-8.3-9.38-12.2-14.3-2.23-2.73-4.51-5.39-6.82-8.05-5.35-6.16-10.4-12.5-15.2-19-1.57-2.13-3.17-4.24-4.78-6.34-12.6-16.6-24.4-33.8-35.6-51.5-0.75-1.18-0.75-1.18-1.51-2.38-32.5-51.2-58.1-106-77.5-164-0.276-0.808-0.551-1.62-0.835-2.45-17.4-51.5-28.1-105-33.9-159-0.244-2.24-0.499-4.49-0.758-6.73-5.51-48.5-5.02-100 0.5-149 0.189-1.71 0.379-3.42 0.568-5.12 2.18-19.4 4.66-38.7 8.43-57.9l0.709-3.69c5.94-30.8 13.5-61.1 23.2-90.9 1.06-3.29 2.1-6.6 3.14-9.9 8.31-26.1 19-51.4 30.4-76.4 0.484-1.06 0.484-1.06 0.978-2.15 3.96-8.68 8.18-17.2 12.7-25.5 1.92-3.59 3.7-7.21 5.46-10.9 16-32.6 36.9-63.4 58.4-92.6l1.26-1.71c5.66-7.68 11.5-15.2 17.5-22.7 1.15-1.45 2.29-2.91 3.43-4.37 4.01-5.09 8.21-9.92 12.6-14.7 2.2-2.47 4.26-5.01 6.32-7.6 8.37-10.3 17.8-19.9 27.3-29.2 1.86-1.85 1.86-1.85 3.67-4.75h2c0.227-0.578 0.454-1.15 0.688-1.75 1.66-2.85 3.7-4.25 6.31-6.25 1.68-1.65 3.35-3.32 5-5 14.7-14.9 14.7-14.9 22-21 1.05-0.897 2.09-1.8 3.14-2.7 3.02-2.6 6.04-5.19 9.07-7.77 1.68-1.44 3.35-2.88 5.02-4.33 6.49-5.59 13.2-10.8 20-15.9 3.59-2.65 7.1-5.36 10.5-8.2 5.48-4.45 11.3-8.34 17.2-12.3 4.17-2.83 8.3-5.68 12.3-8.71 13.5-9.96 28.2-18.6 42.7-27.1 1.14-0.668 1.14-0.668 2.3-1.35 29.4-17.2 60.1-32.9 91.7-45.7 1.1-0.445 2.2-0.89 3.33-1.35 53.7-21.6 109-37.6 167-46.7 0.648-0.104 1.3-0.207 1.96-0.314 22.3-3.55 44.5-6.01 67-7.55 1.92-0.134 3.83-0.282 5.74-0.431 14.9-1.05 29.8-0.956 44.6-0.96zm-397 232c-1.07 0.816-2.14 1.63-3.21 2.45-15.1 11.5-29.5 23.8-43.6 36.6-2.89 2.6-5.85 5.1-8.83 7.59-1.63 1.32-1.63 1.32-1.4 3.41l-1.73 0.746c-2.65 1.46-4.46 3.18-6.6 5.32l-2.42 2.41-2.5 2.52-2.55 2.52c-0.794 0.797-1.59 1.59-2.41 2.41-1.09 1.1-1.09 1.1-2.21 2.21-1.81 1.69-1.81 1.69-1.59 3.85h-2c-1.4 1.35-1.4 1.35-2.88 3.19-2.74 3.23-5.55 6.37-8.45 9.47-5.03 5.38-9.86 10.9-14.5 16.6-2.32 2.88-4.7 5.71-7.08 8.55-15.7 18.8-29.7 38.7-43.1 59.2-0.755 1.15-0.755 1.15-1.53 2.33-38.8 59.5-67.3 126-84.5 195-0.29 1.15-0.579 2.3-0.878 3.49-21 84.4-25.6 173-12.1 260 0.111 0.714 0.222 1.43 0.336 2.16 9.73 62.2 28.5 122 54.7 179 0.599 1.32 0.599 1.32 1.21 2.67 16.9 37.1 38.5 72.7 62.8 105 1.01 1.37 2.01 2.73 3.02 4.1 6.59 8.92 13.5 17.6 20.5 26.1 1.31 1.59 2.6 3.2 3.89 4.81 4.79 5.95 9.81 11.6 15 17.2 2.11 2.29 4.16 4.61 6.19 6.97 3.29 3.81 6.85 7.32 10.5 10.8 1.92 1.98 1.92 1.98 3.92 4.98h2c0.66 1.32 1.32 2.64 2 4h2c0.33 0.99 0.66 1.98 1 3 1.46 1.48 1.46 1.48 3.31 2.94 3.7 3.13 7.12 6.47 10.5 9.94 4.56 4.64 9.32 8.81 14.4 12.9 2.97 2.44 5.78 5.02 8.58 7.64 5.82 5.42 12 10.3 18.3 15.2 1.99 1.52 3.96 3.05 5.94 4.59 14 10.8 28.1 21.3 43.1 30.7 2 1.26 3.98 2.54 5.97 3.83 19.3 12.4 39.4 24 59.9 34.3 0.805 0.405 1.61 0.809 2.44 1.23 33.3 16.6 68.1 29.8 104 40.8 0.994 0.312 1.99 0.624 3.01 0.945 56.8 17.7 117 25.5 176 27.1 1.33 0.035 1.33 0.035 2.68 0.0708 30.1 0.674 60.5-1.45 90.3-5.07 1.13-0.136 2.25-0.273 3.41-0.413 62.8-7.83 124-25.2 182-50.4 2.43-1.05 4.87-2.08 7.31-3.1 9.63-4.06 18.8-8.84 28-13.8 2.46-1.31 4.93-2.58 7.41-3.84 23.3-11.9 45.5-25.6 67.1-40.5 0.791-0.541 1.58-1.08 2.4-1.64 11.2-7.69 22-15.9 32.6-24.4 0.722-0.575 1.44-1.15 2.19-1.74 7.39-5.91 14.7-11.9 21.7-18.3 2.03-1.86 4.08-3.67 6.16-5.48 7.54-6.59 14.9-13.3 21.9-20.4 2.13-2.07 2.13-2.07 5.13-4.07v-2c0.99-0.33 1.98-0.66 3-1 1.44-1.42 1.44-1.42 2.88-3.25 3.3-3.91 6.85-7.48 10.5-11.1 4.84-4.76 9.24-9.69 13.5-15 2.25-2.77 4.62-5.37 7.04-7.98 5.2-5.67 9.91-11.6 14.6-17.7 1.6-2.06 3.22-4.11 4.84-6.15 52.9-66.9 91.9-146 138-367 0.0593-0.917 0.119-1.83 0.18-2.78 3.05-48.7-0.163-98.1-8.18-146-0.299-1.8-0.299-1.8-0.604-3.64-8.72-51.6-24.1-101-44.4-149-0.342-0.815-0.683-1.63-1.04-2.47-3.62-8.59-7.59-17-11.8-25.3-1.49-2.93-2.95-5.88-4.38-8.84-6.58-13.5-14-26.5-21.8-39.4-0.486-0.817-0.972-1.63-1.47-2.48-22.7-38.2-49.7-73.5-79.6-106-1.84-2.06-3.61-4.16-5.38-6.29-0.846-0.949-1.69-1.9-2.56-2.88h-2c-0.246-0.571-0.492-1.14-0.746-1.73-1.46-2.65-3.18-4.46-5.32-6.6-0.797-0.799-1.59-1.6-2.41-2.42-1.25-1.24-1.25-1.24-2.52-2.5-0.833-0.84-1.67-1.68-2.52-2.55l-2.41-2.41c-1.1-1.09-1.1-1.09-2.21-2.21-1.69-1.81-1.69-1.81-3.85-1.59-0.33-0.99-0.66-1.98-1-3-1.45-1.51-1.45-1.51-3.31-3-3.59-3.04-7.06-6.18-10.5-9.38-4.66-4.31-9.46-8.4-14.4-12.4-2.25-1.84-4.43-3.73-6.61-5.65-3.87-3.4-7.87-6.57-12-9.68-0.729-0.553-1.46-1.11-2.21-1.68-2.32-1.76-4.65-3.51-6.98-5.26-0.758-0.572-1.52-1.14-2.3-1.73-12.3-9.23-24.8-17.9-37.7-26.3-0.804-0.523-1.61-1.05-2.44-1.59-11.4-7.4-23.1-14.3-35-21-2.53-1.42-5.05-2.84-7.57-4.27-12.4-6.98-25.1-13.2-38-19.2-0.986-0.454-1.97-0.908-2.99-1.38-57.8-26.4-118-42.7-181-52.6-1.04-0.166-2.09-0.333-3.17-0.504-88.1-13.6-180-5.57-490 129z" fill="currentColor"/>
<path transform="translate(706,469)" d="m0 0c3.67 3.17 7.06 6.57 10.5 10 0.953 0.958 1.91 1.92 2.86 2.87 1.98 1.99 3.96 3.99 5.93 5.99 2.5 2.54 5.02 5.08 7.54 7.61 2.43 2.44 4.86 4.89 7.29 7.34 0.892 0.899 1.78 1.8 2.7 2.72 3.67 3.73 7.29 7.45 10.7 11.4 4.34 5.05 9.1 9.67 13.8 14.3 0.977 0.97 1.95 1.94 2.93 2.91 4.11 4.09 8.23 8.17 12.3 12.2 2.53 2.51 5.06 5.02 7.59 7.54 0.961 0.955 1.92 1.91 2.89 2.86 1.34 1.32 2.67 2.65 4.01 3.98 0.761 0.753 1.52 1.51 2.3 2.28 1.62 1.86 1.62 1.86 1.62 3.86 0.99 0.33 1.98 0.66 3 1 1.52 1.55 1.52 1.55 3.15 3.53 3.91 4.6 8.11 8.83 12.4 13.1 1.62 1.61 3.24 3.21 4.85 4.82 2.53 2.5 5.06 5.01 7.59 7.51 2.46 2.43 4.91 4.87 7.37 7.3 1.15 1.13 1.15 1.13 2.32 2.28 1.05 1.04 1.05 1.04 2.12 2.11 0.618 0.611 1.24 1.22 1.87 1.85 1.32 1.55 1.32 1.55 1.32 3.55 0.99 0.33 1.98 0.66 3 1 1.51 1.53 1.51 1.53 3.13 3.5 4.04 4.76 8.4 9.14 12.8 13.5 0.839 0.835 1.68 1.67 2.54 2.53 2.66 2.65 5.32 5.29 7.99 7.94 3.51 3.49 7.02 6.98 10.5 10.5 0.795 0.787 1.59 1.57 2.41 2.38 3.47 3.46 6.86 6.93 10.1 10.6 3.94 4.57 8.2 8.79 12.5 13 1.71 1.7 3.42 3.39 5.13 5.09 2.67 2.65 5.35 5.3 8.03 7.94 2.6 2.57 5.19 5.14 7.78 7.72 0.809 0.796 1.62 1.59 2.45 2.41 0.738 0.735 1.48 1.47 2.24 2.23 0.654 0.646 1.31 1.29 1.98 1.96 1.4 1.63 1.4 1.63 1.4 3.63h2c1.34 1.29 1.34 1.29 2.94 3.19 0.619 0.732 1.24 1.46 1.88 2.22 0.722 0.856 1.44 1.71 2.19 2.59 0.866 0.98 1.73 1.96 2.62 2.97 6.35 7.22 11.7 14.6 16.4 23 0.342 0.612 0.683 1.22 1.04 1.85 14.9 27.1 18.2 58.8 9.84 88.6-7.97 26.6-26.3 46.4-45.7 65.4-5.98 5.87-5.98 5.87-11.6 12.1-5.51 6.45-11.7 12.3-17.8 18.2-7.3 7.14-7.3 7.14-14.2 14.7-6.39 7.5-13.7 14.2-20.7 21.2-9.37 9.22-9.37 9.22-18.2 19-4.37 4.91-9.17 9.45-13.8 14.1-2.12 2.09-4.24 4.19-6.35 6.29-0.749 0.744-0.749 0.744-1.51 1.5-2.7 2.7-5.26 5.46-7.7 8.4-1.18 1.36-1.18 1.36-2.38 2.75h-2c-0.25 0.576-0.5 1.15-0.758 1.75-1.41 2.57-3.03 4.27-5.11 6.33-0.794 0.791-1.59 1.58-2.41 2.4-0.858 0.845-1.72 1.69-2.6 2.56-0.88 0.875-1.76 1.75-2.67 2.65-2.34 2.32-4.68 4.64-7.02 6.96-3.3 3.26-6.6 6.53-9.89 9.81-1.75 1.74-3.51 3.48-5.27 5.22-0.794 0.788-1.59 1.58-2.41 2.39-1.05 1.04-1.05 1.04-2.12 2.1-1.92 1.94-1.92 1.94-3.75 4.85h-2c-0.25 0.576-0.5 1.15-0.758 1.75-1.41 2.57-3.03 4.27-5.11 6.33-0.794 0.791-1.59 1.58-2.41 2.4-0.858 0.845-1.72 1.69-2.6 2.56-0.88 0.875-1.76 1.75-2.67 2.65-2.34 2.32-4.68 4.64-7.02 6.96-3.3 3.26-6.6 6.53-9.89 9.81-1.75 1.74-3.51 3.48-5.27 5.22-0.794 0.788-1.59 1.58-2.41 2.39-1.05 1.04-1.05 1.04-2.12 2.1-1.92 1.94-1.92 1.94-3.75 4.85h-2c-0.257 0.58-0.513 1.16-0.777 1.76-1.34 2.45-2.82 4.12-4.79 6.1-0.709 0.719-1.42 1.44-2.15 2.18-9.99 9.91-18.5 17.9-32.3 22-0.913 0.29-0.913 0.29-1.84 0.586-12.1 2.33-24.3 0.222-34.9-6.01-11.9-8.15-20.8-19.1-24-33.4-2.09-14.6 1.77-28 10.6-39.7 5.92-7.31 12.3-13.9 19.1-20.5 1.56-1.53 3.12-3.07 4.68-4.61 1.39-1.38 2.79-2.75 4.19-4.12 2.32-2.27 2.32-2.27 4.2-5.28h2c0.254-0.579 0.507-1.16 0.769-1.76 1.37-2.5 2.9-4.15 4.93-6.16 1.14-1.13 1.14-1.13 2.3-2.28 1.23-1.21 1.23-1.21 2.48-2.44 0.838-0.833 1.68-1.67 2.54-2.52 2.68-2.66 5.36-5.31 8.05-7.97 2.69-2.66 5.38-5.32 8.06-7.99 1.67-1.66 3.34-3.31 5.02-4.97 0.754-0.748 1.51-1.5 2.29-2.27 0.667-0.659 1.33-1.32 2.02-2 1.63-1.59 1.63-1.59 2.55-3.66h2c0.402-0.891 0.402-0.891 0.813-1.8 1.2-2.22 2.39-3.64 4.18-5.4 0.604-0.601 1.21-1.2 1.83-1.82 0.978-0.958 0.978-0.958 1.98-1.94 0.673-0.668 1.35-1.34 2.04-2.02 2.15-2.13 4.31-4.26 6.47-6.39 2.15-2.12 4.3-4.24 6.44-6.37 1.33-1.32 2.67-2.64 4.01-3.95 2.85-2.82 5.56-5.63 8.07-8.76 0.718-0.841 1.44-1.68 2.18-2.55h2c0.406-0.895 0.406-0.895 0.821-1.81 1.17-2.17 2.31-3.56 4.05-5.27 0.578-0.574 1.16-1.15 1.75-1.74 0.624-0.61 1.25-1.22 1.89-1.85 0.97-0.962 0.97-0.962 1.96-1.94 2.07-2.05 4.14-4.09 6.22-6.13 2.06-2.03 4.11-4.06 6.16-6.09 1.27-1.26 2.55-2.52 3.83-3.78 3.04-3.01 5.96-6.07 8.76-9.32 3.69-4.27 7.63-8.24 11.6-12.2 0.742-0.739 1.48-1.48 2.25-2.24 2.34-2.33 4.69-4.66 7.04-6.99 3.11-3.09 6.23-6.18 9.34-9.27 1.07-1.06 1.07-1.06 2.17-2.15 0.658-0.655 1.32-1.31 1.99-1.98 0.581-0.575 1.16-1.15 1.76-1.74 1.47-1.45 1.47-1.45 2.36-3.48h2c0.389-0.878 0.389-0.878 0.786-1.77 1.3-2.39 2.7-3.95 4.63-5.86 0.698-0.695 1.4-1.39 2.12-2.1 0.755-0.742 1.51-1.48 2.29-2.25 1.17-1.16 1.17-1.16 2.36-2.35 2.5-2.48 5-4.95 7.5-7.42 2.48-2.46 4.97-4.91 7.45-7.38 1.54-1.53 3.09-3.06 4.63-4.58 4.63-4.59 9.01-9.33 13.2-14.3 0.768-0.898 1.54-1.8 2.33-2.72 6.54-7.82 6.54-7.82 8.8-17.5-2.72-9.08-8.7-15.8-15.5-22.2-2.04-2.01-3.88-4.01-5.73-6.18-4.08-4.69-8.45-9.06-12.9-13.4-0.839-0.835-1.68-1.67-2.54-2.53-2.66-2.65-5.32-5.29-7.99-7.94-3.51-3.49-7.02-6.98-10.5-10.5-0.795-0.787-1.59-1.57-2.41-2.38-4.12-4.1-8.05-8.3-11.8-12.7-2.98-3.37-6.2-6.5-9.4-9.65-1.44-1.42-2.87-2.85-4.31-4.27-2.24-2.21-4.48-4.43-6.72-6.64-2.18-2.15-4.36-4.31-6.53-6.47-1.02-0.997-1.02-0.997-2.05-2.01-0.927-0.922-0.927-0.922-1.87-1.86-0.547-0.54-1.09-1.08-1.66-1.64-1.17-1.4-1.17-1.4-1.17-3.4-0.99-0.33-1.98-0.66-3-1-1.49-1.51-1.49-1.51-3.1-3.47-4.19-4.93-8.71-9.45-13.3-14-0.884-0.88-1.77-1.76-2.68-2.67-2.8-2.79-5.61-5.58-8.42-8.37-3.7-3.67-7.4-7.35-11.1-11-0.839-0.83-1.68-1.66-2.54-2.52-4.2-4.18-8.2-8.44-12.1-12.9-3.49-3.93-7.27-7.57-11-11.3-1.75-1.74-3.51-3.48-5.26-5.23-2.75-2.72-5.49-5.44-8.24-8.16-2.67-2.64-5.33-5.28-7.99-7.93-0.831-0.818-1.66-1.64-2.52-2.48-1.14-1.13-1.14-1.13-2.3-2.29-0.672-0.664-1.34-1.33-2.04-2.01-1.43-1.67-1.43-1.67-1.43-3.67-0.99-0.33-1.98-0.66-3-1-1.3-1.32-1.3-1.32-2.75-3.13-3.56-4.19-7.37-8.06-11.3-11.9-0.637-0.632-1.27-1.26-1.93-1.91-2.67-2.65-5.35-5.29-8.04-7.93-1.97-1.94-3.94-3.89-5.91-5.84-0.612-0.599-1.22-1.2-1.86-1.81-1.45-1.44-2.85-2.94-4.24-4.44v-2c-1.49-0.495-1.49-0.495-3-1-1.9-2.09-3.65-4.15-5.38-6.38-0.738-0.947-0.738-0.947-1.49-1.91-8.46-11.2-12.5-23.1-10.7-37.1 2.32-14 8.05-25.3 19.5-34.1 19.7-13.4 42.5-10.9 61.1 2.45z" fill="currentColor"/>
</svg>
