<?xml version="1.0" standalone="no"?>
<!DOCTYPE svg PUBLIC "-//W3C//DTD SVG 20010904//EN"
 "http://www.w3.org/TR/2001/REC-SVG-20010904/DTD/svg10.dtd">
<svg version="1.0" xmlns="http://www.w3.org/2000/svg"
 width="200.000000pt" height="200.000000pt" viewBox="0 0 200.000000 200.000000"
 preserveAspectRatio="xMidYMid meet">

<g transform="translate(0.000000,200.000000) scale(0.100000,-0.100000)"
fill="currentColor" stroke="none">
<path d="M820 1670 l0 -60 -60 0 -60 0 0 -60 0 -60 -60 0 -60 0 0 -185 0 -186
58 3 57 3 3 183 2 182 60 0 60 0 0 60 0 60 180 0 180 0 0 60 0 60 -180 0 -180
0 0 -60z"/>
<path d="M1190 1550 l0 -60 60 0 60 0 2 -182 3 -183 58 -3 57 -3 0 186 0 185
-60 0 -60 0 0 60 0 60 -60 0 -60 0 0 -60z"/>
<path d="M700 1060 l0 -60 -60 0 -60 0 0 -60 0 -60 180 0 180 0 0 60 0 60 -60
0 -60 0 0 60 0 60 -60 0 -60 0 0 -60z"/>
<path d="M1190 1060 l0 -60 -60 0 -60 0 0 -60 0 -60 180 0 180 0 0 -60 0 -60
60 0 60 0 0 60 0 60 -60 0 -60 0 0 60 0 60 -60 0 -60 0 0 60 0 60 -60 0 -60 0
0 -60z"/>
<path d="M460 820 l0 -60 55 0 55 0 0 60 0 60 -55 0 -55 0 0 -60z"/>
<path d="M337 753 c-4 -3 -7 -87 -7 -185 l0 -178 60 0 60 0 0 185 0 185 -53 0
c-30 0 -57 -3 -60 -7z"/>
<path d="M1560 575 l0 -185 55 0 55 0 0 185 0 185 -55 0 -55 0 0 -185z"/>
<path d="M460 330 l0 -60 545 0 545 0 0 60 0 60 -545 0 -545 0 0 -60z"/>
</g>
</svg>
